<svg height="512pt" viewBox="0 -47 512 512" width="512pt" xmlns="http://www.w3.org/2000/svg"><path d="m135 204.914062c-26.074219 0-48.304688 16.722657-56.558594 40h-18.441406c-11.027344 0-20-8.972656-20-20v-61c0-11.027343 8.972656-20 20-20h325.058594c20.40625 4.015626 54.472656 11.25 79.132812 19.230469 4.378906 1.417969 7.808594 6.585938 7.808594 11.769531h40c0-22.574218-14.59375-43.0625-35.492188-49.824218-28-9.0625-93.785156-22.367188-93.785156-22.367188l-51.09375-73.644531c-12.621094-18.207031-33.382812-29.078125-55.539062-29.078125h-131.089844c-27.988281 0-53.382812 17.582031-63.238281 43.765625l-23.445313 60.171875c-32.308594.894531-58.316406 27.457031-58.316406 59.976562v61c0 33.082032 26.914062 60 60 60h18.441406c8.253906 23.277344 30.484375 40 56.558594 40s48.304688-16.722656 56.558594-40h52.441406v-40h-52.441406c-8.253906-23.277343-30.484375-40-56.558594-40zm97-164.914062h44.089844c9.039062 0 17.511718 4.4375 22.667968 11.875l36.105469 52.039062h-102.863281zm-112.925781 18.175781.101562-.257812c4.003907-10.71875 14.382813-17.917969 25.824219-17.917969h47v63.914062h-90.746094zm15.925781 226.738281c-11.027344 0-20-8.972656-20-20 0-11.027343 8.972656-20 20-20s20 8.972657 20 20c0 11.027344-8.972656 20-20 20zm0 0"/><path d="m466.890625 264.308594 25.394531-25.394532-28.285156-28.285156-25.394531 25.394532c-6.363281-3.761719-13.277344-6.683594-20.605469-8.578126v-35.53125h-40v35.53125c-7.328125 1.894532-14.242188 4.816407-20.605469 8.578126l-25.394531-25.394532-28.285156 28.285156 25.394531 25.394532c-3.761719 6.363281-6.683594 13.277344-8.578125 20.605468h-36.53125v40h36.53125c1.894531 7.328126 4.816406 14.242188 8.578125 20.605469l-25.394531 25.394531 28.285156 28.285157 25.394531-25.394531c6.363281 3.761718 13.277344 6.683593 20.605469 8.578124v35.53125h40v-35.53125c7.328125-1.894531 14.242188-4.816406 20.605469-8.578124l25.394531 25.394531 28.285156-28.285157-25.394531-25.394531c3.761719-6.363281 6.683594-13.277343 8.578125-20.605469h36.53125v-40h-36.53125c-1.894531-7.328124-4.816406-14.242187-8.578125-20.605468zm-69.773437 81.3125c-22.089844 0-40-17.910156-40-40 0-22.09375 17.910156-40 40-40 22.09375 0 40 17.90625 40 40 0 22.089844-17.90625 40-40 40zm0 0"/></svg>